<svg width="20" height="20" viewBox="0 0 20 20" fill="none" xmlns="http://www.w3.org/2000/svg">
<path d="M13.9167 15.8167H6.08333C5.73333 15.8167 5.34166 15.5417 5.225 15.2083L1.775 5.55834C1.28333 4.17501 1.85833 3.75001 3.04166 4.60001L6.29166 6.92501C6.83333 7.30001 7.45 7.10834 7.68333 6.50001L9.15 2.59167C9.61666 1.34167 10.3917 1.34167 10.8583 2.59167L12.325 6.50001C12.5583 7.10834 13.175 7.30001 13.7083 6.92501L16.7583 4.75001C18.0583 3.81667 18.6833 4.29168 18.15 5.80001L14.7833 15.225C14.6583 15.5417 14.2667 15.8167 13.9167 15.8167Z" stroke="#99938F" stroke-width="1.5" stroke-linecap="round" stroke-linejoin="round"/>
<path d="M5.41667 18.3333H14.5833" stroke="#99938F" stroke-width="1.5" stroke-linecap="round" stroke-linejoin="round"/>
<path d="M7.91667 11.6667H12.0833" stroke="#99938F" stroke-width="1.5" stroke-linecap="round" stroke-linejoin="round"/>
</svg>
